<?xml version="1.0" encoding="UTF-8"?>
<svg id="Layer_2" data-name="Layer 2" xmlns="http://www.w3.org/2000/svg" viewBox="0 0 171.11 90.03">
  <defs>
    <style>
      .cls-1 {
        fill: #c93a1c;
      }
    </style>
  </defs>
  <g id="Layer_1-2" data-name="Layer 1">
    <path class="cls-1" d="M139.18.02l-.02-.02h-35.75c-.66,0-1.26.38-1.54.98l-2.92,6.25c-1.19-.97-2.43-1.85-3.73-2.62C89.29,1.09,82.76,0,77.35,0h-35.24c-.66,0-1.26.38-1.54.98L.16,87.61c-.53,1.13.3,2.42,1.54,2.42h49.63c.94,0,1.7-.76,1.7-1.7v-35.73c0-.25.05-.49.16-.72l8.36-17.93c.28-.6.88-.98,1.54-.98h19.85c.94,0,1.7.76,1.7,1.7v2.91c0,.25-.05.49-.16.72l-23.02,49.31c-.53,1.13.3,2.42,1.54,2.42h47.46c.94,0,1.7-.76,1.7-1.7v-31.05c0-.25.05-.49.16-.72l10.54-22.61c.28-.6.88-.98,1.54-.98h17.49c.94,0,1.7.76,1.7,1.7v7.94c0,.25-.05.49-.16.72l-20.66,44.29c-.53,1.13.3,2.42,1.54,2.42h45.1c.94,0,1.7-.76,1.7-1.7v-50.33C171.11,8.11,150.07.29,139.18.02Z"/>
  </g>
</svg>