<?xml version="1.0" encoding="UTF-8"?>
<svg id="Layer_2" data-name="Layer 2" xmlns="http://www.w3.org/2000/svg" viewBox="0 0 1898.81 362.67">
  <defs>
    <style>
      .cls-1 {
        fill: #c93a1c;
      }
    </style>
  </defs>
  <g id="Layer_1-2" data-name="Layer 1">
    <g>
      <path class="cls-1" d="M953.87,38.87C922.05,12.92,875.81,0,815.47,0s-105.94,12.82-137.55,38.55c-8.01,6.52-15.06,13.78-21.04,21.79,13.35,24.14,21.79,55,21.79,94.3v169.37c31.61,25.85,77.53,38.66,137.97,38.66s106.36-12.92,137.87-38.87c31.4-25.95,47.1-64.4,47.1-115.55v-56.28c0-49.44-15.91-87.14-47.74-113.09ZM867.48,208.89c0,20.08-4.48,35.78-13.46,47.2-8.97,11.43-21.68,17.19-38.02,17.19s-28.94-5.77-37.91-17.19c-9.08-11.42-13.56-27.34-13.56-47.84v-55.1c0-19.97,4.49-35.56,13.56-46.88,8.97-11.21,21.57-16.77,37.91-16.77s29.05,5.55,38.02,16.77c8.97,11.32,13.46,26.91,13.46,46.88v55.75Z"/>
      <path class="cls-1" d="M1211.59,9.83c-2.94,0-5.51,1.98-6.26,4.82l-61.84,234.07h-1.81l-62.47-234.08c-.76-2.84-3.32-4.81-6.26-4.81h-113.56c3.95,2.56,7.69,5.45,11.32,8.33,38.23,31.18,57.56,76.14,57.56,133.81v56.28c0,17.41-1.71,33.75-5.02,48.8l33.58,91.54c.94,2.55,3.36,4.25,6.08,4.25h158.73c2.71,0,5.14-1.69,6.08-4.24l121.46-330.06c1.56-4.23-1.57-8.72-6.08-8.72h-131.5Z"/>
      <path class="cls-1" d="M1609.96,36.74c-15.59-24.46-42.72-36.74-81.48-36.74-24.14,0-44.53,5.55-61.3,16.55-16.77,11-29.58,26.38-38.55,45.92l-4.27-.64V15.66c0-3.58-2.9-6.48-6.48-6.48h-36.88l-90.88,247.01v90.17c0,3.58,2.9,6.48,6.48,6.48h121.28c3.58,0,6.48-2.9,6.48-6.48v-165.67c0-24.03,4.48-44,13.46-59.7,8.97-15.7,21.25-23.6,36.74-23.6,10.25,0,17.94,5.13,23.28,15.38,4.8,9.12,7.7,23.94,8.86,44.3.22,3.78,3.65,6.58,7.4,6.03l115.82-17.01c3.29-.48,5.7-3.4,5.54-6.72-2.18-44.94-10.64-79.09-25.49-102.63Z"/>
      <path class="cls-1" d="M530.33,9.89l-.08-.08h-136.23c-2.52,0-4.8,1.46-5.87,3.74l-11.12,23.83c-4.54-3.7-9.24-7.06-14.2-10-22.6-13.4-47.46-17.57-68.08-17.57h-134.3c-2.52,0-4.8,1.46-5.87,3.74L.61,343.66c-2,4.29,1.13,9.21,5.87,9.21h189.1c3.58,0,6.47-2.9,6.47-6.47v-136.14c0-.95.21-1.88.61-2.74l31.86-68.33c1.06-2.28,3.35-3.74,5.87-3.74h75.63c3.58,0,6.47,2.9,6.47,6.47v11.08c0,.95-.21,1.88-.61,2.74l-87.71,187.91c-2,4.29,1.13,9.21,5.87,9.21h180.86c3.58,0,6.47-2.9,6.47-6.47v-118.32c0-.95.21-1.88.61-2.74l40.18-86.15c1.06-2.28,3.35-3.74,5.87-3.74h66.64c3.58,0,6.47,2.9,6.47,6.47v30.25c0,.95-.21,1.88-.61,2.74l-78.72,168.75c-2,4.29,1.13,9.21,5.87,9.21h171.87c3.58,0,6.47-2.9,6.47-6.47v-191.78c0-113.9-80.18-143.69-121.69-144.72Z"/>
      <g>
        <path class="cls-1" d="M1689.6,232.88c.79.79,1.18,1.75,1.18,2.87v32.12c0,1.13-.4,2.09-1.18,2.87-.79.79-1.75,1.18-2.87,1.18h-32.8c-1.13,0-1.69.57-1.69,1.69v78.41c0,1.13-.4,2.09-1.18,2.87-.79.79-1.75,1.18-2.87,1.18h-39.56c-1.13,0-2.09-.39-2.87-1.18-.79-.79-1.18-1.74-1.18-2.87v-78.41c0-1.12-.57-1.69-1.69-1.69h-19.95c-1.13,0-2.09-.39-2.87-1.18-.79-.79-1.18-1.74-1.18-2.87v-32.12c0-1.12.39-2.08,1.18-2.87.79-.79,1.74-1.18,2.87-1.18h19.95c1.12,0,1.69-.56,1.69-1.69v-7.44c0-13.97,2.14-24.85,6.42-32.62,4.28-7.78,11.21-13.3,20.8-16.57,9.57-3.26,22.82-4.67,39.73-4.22h12.85c1.12,0,2.08.4,2.87,1.18.79.79,1.18,1.74,1.18,2.87v27.38c0,1.13-.4,2.09-1.18,2.87-.79.79-1.75,1.18-2.87,1.18h-11.16c-7.9.22-13.36,1.86-16.4,4.9-3.05,3.05-4.57,8.62-4.57,16.73v3.72c0,1.13.56,1.69,1.69,1.69h32.8c1.12,0,2.08.4,2.87,1.18Z"/>
        <path class="cls-1" d="M1517.42,348.48c-5.07-5.07-7.6-11.44-7.6-19.11s2.48-14.31,7.44-19.27c4.96-4.96,11.38-7.44,19.27-7.44s14.31,2.48,19.27,7.44c4.96,4.96,7.44,11.38,7.44,19.27s-2.54,14.03-7.61,19.11c-5.07,5.07-11.44,7.6-19.1,7.6s-14.03-2.54-19.11-7.6Z"/>
        <path class="cls-1" d="M1722.6,214.89c-5.07-5.07-7.6-11.44-7.6-19.11s2.48-14.31,7.44-19.27c4.96-4.96,11.38-7.44,19.27-7.44s14.31,2.48,19.27,7.44c4.96,4.96,7.44,11.38,7.44,19.27s-2.54,14.03-7.61,19.11c-5.07,5.07-11.44,7.6-19.1,7.6s-14.03-2.54-19.11-7.6Z"/>
        <path class="cls-1" d="M1718.54,354.91c-.79-.79-1.18-1.74-1.18-2.87v-116.28c0-1.12.39-2.08,1.18-2.87.79-.79,1.74-1.18,2.87-1.18h39.56c1.12,0,2.08.4,2.87,1.18.79.79,1.18,1.75,1.18,2.87v116.28c0,1.13-.4,2.09-1.18,2.87-.79.79-1.75,1.18-2.87,1.18h-39.56c-1.13,0-2.09-.39-2.87-1.18Z"/>
        <path class="cls-1" d="M1897.62,261.43c-.79.79-1.75,1.18-2.87,1.18h-32.46c-1.13,0-1.69.57-1.69,1.69v29.58c0,7.43,1.53,12.96,4.57,16.56,3.05,3.61,7.95,5.41,14.71,5.41h11.16c1.12,0,2.08.4,2.87,1.18.79.79,1.18,1.75,1.18,2.87v32.12c0,2.48-1.35,3.94-4.06,4.39-9.47.45-16.23.68-20.28.68-18.72,0-32.69-3.1-41.93-9.3-9.25-6.2-13.98-17.86-14.2-35v-48.51c0-1.12-.56-1.69-1.69-1.69h-19.27c-1.13,0-2.09-.39-2.87-1.18-.79-.79-1.18-1.74-1.18-2.87v-30.09c0-1.13.39-2.09,1.18-2.87.79-.79,1.74-1.19,2.87-1.19h19.27c1.13,0,1.69-.55,1.69-1.68v-40.24c0-1.13.39-2.09,1.18-2.87.79-.79,1.74-1.19,2.87-1.19h37.87c1.12,0,2.08.4,2.87,1.19.79.79,1.18,1.74,1.18,2.87v40.24c0,1.13.56,1.68,1.69,1.68h32.46c1.12,0,2.08.4,2.87,1.19.79.79,1.18,1.74,1.18,2.87v30.09c0,1.13-.4,2.09-1.18,2.87Z"/>
      </g>
    </g>
  </g>
</svg>